<?xml version="1.0" standalone="no"?>
<!DOCTYPE svg PUBLIC "-//W3C//DTD SVG 20010904//EN"
 "http://www.w3.org/TR/2001/REC-SVG-20010904/DTD/svg10.dtd">
<svg version="1.0" xmlns="http://www.w3.org/2000/svg"
 width="1248.000000pt" height="1248.000000pt" viewBox="0 0 1248.000000 1248.000000"
 preserveAspectRatio="xMidYMid meet">
<metadata>
Created by potrace 1.14, written by Peter Selinger 2001-2017
</metadata>
<g transform="translate(0.000000,1248.000000) scale(0.100000,-0.100000)"
fill="#000000" stroke="none">
<path d="M8747 12474 c-1 -1 -29 -5 -62 -9 -75 -8 -303 -54 -324 -64 -9 -5
-24 -7 -33 -6 -10 2 -18 0 -18 -5 0 -4 -17 -11 -37 -16 -42 -8 -42 -8 -63 -17
-8 -3 -44 -16 -80 -28 -35 -12 -80 -29 -100 -37 -19 -9 -41 -17 -49 -18 -7 -1
-18 -7 -24 -13 -6 -6 -17 -11 -24 -11 -16 0 -247 -112 -251 -122 -2 -5 -12 -8
-23 -8 -10 0 -19 -3 -19 -7 0 -5 -19 -17 -43 -28 -23 -11 -46 -23 -52 -28 -28
-21 -85 -56 -85 -51 0 2 -6 0 -12 -6 -7 -6 -56 -41 -109 -78 -52 -37 -111 -80
-130 -95 -19 -15 -52 -42 -73 -60 -22 -18 -58 -49 -79 -69 -22 -21 -42 -38
-46 -39 -3 0 -32 -29 -63 -64 -31 -35 -59 -60 -62 -57 -3 3 -6 -1 -6 -8 0 -7
-8 -20 -18 -29 -10 -9 -40 -43 -67 -76 -28 -33 -53 -61 -57 -63 -5 -2 -8 -8
-8 -13 0 -8 -26 -42 -57 -75 -7 -7 -13 -17 -13 -22 0 -5 -7 -15 -15 -22 -15
-13 -145 -206 -145 -216 0 -3 -11 -20 -25 -38 -14 -18 -25 -36 -25 -41 0 -4
-13 -30 -30 -57 -16 -26 -30 -54 -30 -60 0 -6 -6 -19 -14 -27 -15 -18 -111
-242 -145 -341 -13 -36 -26 -72 -29 -80 -3 -8 -6 -19 -8 -25 -1 -5 -12 -45
-24 -88 -12 -43 -23 -88 -26 -100 -2 -12 -7 -33 -10 -47 -3 -14 -7 -38 -9 -55
-2 -16 -4 -30 -5 -30 -5 0 -15 -76 -26 -195 -7 -73 -8 -271 -3 -370 l4 -65 35
-6 c82 -15 447 7 510 31 3 1 10 3 15 4 56 8 282 76 345 103 19 9 72 33 118 54
46 22 87 39 93 39 5 0 9 5 9 10 0 6 4 10 10 10 13 0 184 101 188 112 2 4 8 8
13 8 18 0 205 139 314 234 71 62 272 260 335 331 62 69 203 248 245 310 22 33
42 62 45 65 14 12 122 192 157 260 21 41 41 77 46 78 4 2 7 12 7 23 0 10 5 19
11 19 5 0 7 5 4 10 -3 6 -1 10 4 10 6 0 10 3 9 8 -1 4 3 18 9 32 6 14 23 54
37 90 15 36 31 74 36 85 8 19 14 37 20 60 2 6 14 42 27 80 13 39 25 79 28 90
9 43 13 62 24 103 7 23 9 47 6 52 -3 5 -1 11 4 14 4 3 11 27 15 53 3 27 8 60
11 74 3 14 7 45 9 70 3 24 5 44 6 44 7 0 13 355 8 440 -2 22 -7 46 -12 54 -7
11 -6 12 5 6 12 -8 12 -6 0 8 -9 11 -26 16 -53 14 -22 -1 -40 -3 -41 -3z"/>
<path d="M2767 8654 c-1 -1 -40 -4 -87 -8 -47 -3 -96 -8 -110 -12 -14 -3 -36
-7 -50 -9 -14 -1 -33 -6 -42 -10 -9 -4 -22 -4 -28 0 -5 3 -10 2 -10 -3 0 -5
-15 -12 -32 -15 -18 -3 -46 -11 -63 -18 -16 -7 -34 -13 -40 -13 -5 -1 -27 -9
-49 -19 -21 -9 -41 -17 -45 -17 -9 0 -139 -66 -153 -78 -7 -6 -20 -12 -28 -14
-8 -2 -17 -6 -20 -10 -3 -4 -31 -24 -62 -45 -30 -21 -78 -56 -104 -78 -63 -50
-214 -204 -214 -216 0 -5 -3 -9 -8 -9 -7 0 -36 -40 -104 -144 -25 -37 -119
-219 -126 -242 -1 -5 -15 -47 -32 -94 -16 -47 -31 -96 -34 -110 -5 -28 -22
-110 -32 -155 -4 -16 -9 -237 -11 -491 l-5 -461 266 1 c146 1 266 -3 266 -7 0
-5 5 -5 12 -1 16 10 1268 11 1268 1 0 -5 5 -5 12 -1 16 10 1268 11 1268 1 0
-5 5 -5 12 -1 17 11 948 11 948 0 0 -5 6 -4 13 1 6 5 83 8 170 8 152 -2 159
-1 167 19 4 12 6 25 3 29 -7 13 -7 123 1 135 4 7 3 12 -1 12 -5 0 -6 27 -3 61
3 33 3 62 0 64 -7 4 -3 82 4 102 3 7 2 13 -2 13 -4 0 -5 27 -2 60 3 34 4 63 1
65 -7 7 -4 92 3 104 4 6 3 11 -1 11 -5 0 -6 27 -3 61 3 33 3 62 0 64 -7 4 -3
82 4 102 3 7 2 13 -2 13 -4 0 -6 28 -4 62 4 69 4 67 1 167 0 38 2 74 6 80 3 6
2 11 -2 11 -5 0 -6 27 -3 60 3 34 4 63 1 65 -7 7 -4 92 3 104 4 6 3 11 -1 11
-5 0 -6 27 -3 61 3 33 3 62 0 64 -7 4 -3 82 4 102 3 7 2 13 -2 13 -4 0 -5 27
-2 60 3 34 4 63 1 65 -7 7 -4 92 3 104 4 6 3 11 -1 11 -5 0 -6 27 -3 61 3 33
3 62 0 64 -7 4 -3 82 4 102 3 7 2 13 -2 13 -4 0 -7 17 -7 37 l0 37 -1453 1
c-800 0 -1454 -1 -1455 -1z"/>
<path d="M6500 8652 c-7 -3 -10 -390 -10 -1136 l0 -1133 380 1 c209 1 380 -3
380 -7 0 -5 5 -5 12 -1 17 11 468 11 468 1 0 -5 5 -5 12 -1 17 10 308 11 308
1 0 -5 5 -5 12 -1 17 10 308 11 308 1 0 -5 5 -5 12 -1 17 10 308 11 308 1 0
-5 5 -5 12 -1 17 11 468 11 468 1 0 -5 5 -5 12 -1 17 10 948 11 948 1 0 -5 6
-5 12 -1 7 5 177 8 378 9 l365 0 0 440 c0 242 -4 460 -8 485 -9 52 -26 145
-33 176 -2 12 -11 40 -19 64 -8 23 -15 51 -15 61 0 11 -4 19 -10 19 -5 0 -9 3
-8 8 8 24 -92 225 -164 332 -90 133 -172 225 -293 327 -99 84 -269 193 -301
193 -7 0 -14 5 -14 10 0 6 -9 10 -20 10 -11 0 -20 4 -20 8 0 7 -62 33 -90 38
-7 1 -42 15 -65 25 -11 5 -31 11 -45 13 -14 3 -26 5 -27 7 -4 2 -9 3 -73 17
-69 14 -113 21 -170 28 -48 6 -2993 11 -3010 6z"/>
<path d="M1303 5572 l-23 -3 0 -1134 0 -1134 29 1 c15 1 34 -3 41 -7 7 -5 11
-4 7 1 -3 5 130 9 324 9 181 0 329 -4 329 -8 0 -5 5 -5 12 -1 15 10 273 8 289
-2 7 -4 10 -3 6 2 -3 5 130 9 324 9 181 0 329 -4 329 -8 0 -5 5 -5 12 -1 14 9
263 9 277 -1 6 -3 11 -2 11 2 0 5 44 7 98 6 l97 -2 0 1134 0 1135 -25 1 c-102
2 -2120 3 -2137 1z"/>
<path d="M4278 5575 c0 0 -2 -511 -3 -1136 l-2 -1136 452 0 c249 0 458 -4 465
-8 7 -5 11 -4 7 1 -3 5 130 9 324 9 181 0 329 -4 329 -8 0 -5 5 -5 12 -1 15
10 273 8 289 -2 7 -4 10 -3 6 2 -3 5 130 9 324 9 181 0 329 -4 329 -8 0 -5 5
-5 12 -1 15 10 273 8 289 -2 7 -4 10 -3 6 2 -3 5 312 8 774 8 l779 -2 1 47 c0
25 1 535 2 1133 l2 1088 -25 1 c-17 0 -3954 4 -4372 4z"/>
<path d="M1283 2483 c-10 -25 5 -928 15 -968 6 -22 13 -53 16 -70 3 -16 9 -47
15 -67 5 -21 7 -38 4 -38 -3 0 0 -6 6 -13 6 -8 12 -22 14 -33 2 -10 9 -30 14
-44 6 -14 9 -28 6 -32 -2 -5 0 -8 5 -8 6 0 13 -12 17 -27 8 -33 77 -177 88
-181 4 -2 7 -7 7 -12 0 -14 62 -110 71 -110 5 0 9 -6 9 -12 0 -14 36 -61 87
-115 17 -18 30 -33 27 -33 -9 0 139 -136 157 -144 10 -5 19 -12 19 -16 0 -8
174 -130 185 -130 4 0 19 -8 33 -18 97 -66 350 -151 527 -178 50 -7 271 -18
285 -14 15 4 110 4 110 0 0 -5 170 -4 175 2 2 1 47 1 100 -2 53 -3 98 -3 100
-1 6 5 105 7 105 1 0 -5 170 -4 175 2 2 1 56 1 120 -2 64 -3 118 -3 120 0 2 3
38 3 80 0 42 -3 78 -3 80 0 2 3 38 3 80 0 42 -3 78 -3 80 0 2 3 38 3 80 0 42
-3 78 -3 80 0 2 3 56 3 120 0 64 -3 118 -3 120 0 2 3 47 3 100 0 53 -3 98 -3
100 -1 6 5 105 7 105 1 0 -5 170 -4 175 2 2 1 47 1 100 -2 53 -3 98 -3 100 -1
6 5 105 7 105 1 0 -4 164 -4 180 0 3 1 26 1 52 0 l46 -1 1 70 c0 38 1 73 2 78
1 4 0 13 -1 18 -4 24 -2 94 4 104 4 6 3 11 -1 11 -5 0 -6 27 -3 61 3 33 3 62
0 64 -7 4 -3 82 4 102 3 7 2 13 -2 13 -4 0 -5 27 -2 60 3 34 4 63 1 65 -4 5
-5 77 -1 93 1 4 1 12 0 17 -5 24 -1 144 5 154 3 6 2 11 -2 11 -5 0 -6 27 -3
61 3 33 3 62 0 64 -7 4 -3 82 4 102 3 7 2 13 -2 13 -4 0 -5 27 -2 60 3 34 4
63 1 66 -6 6 -2 144 5 155 3 5 2 9 -3 9 -9 0 -8 84 2 99 3 6 2 11 -2 11 -5 0
-6 27 -3 61 3 33 3 62 0 64 -7 4 -3 82 4 102 3 7 2 13 -2 13 -4 0 -5 27 -2 60
3 34 4 63 1 65 -2 3 -3 40 -2 82 2 92 2 96 1 191 -2 71 -2 72 -28 72 -15 0
-1003 1 -2196 3 -1696 1 -2170 -1 -2173 -10z"/>
<path d="M6533 2492 l-43 -3 0 -1133 c0 -1125 0 -1134 20 -1139 11 -3 22 -2
24 1 2 4 48 5 101 2 53 -3 98 -3 100 -1 6 5 105 7 105 1 0 -5 170 -4 175 2 2
1 47 1 100 -2 53 -3 98 -3 100 -1 6 5 105 7 105 1 0 -5 170 -4 175 2 2 1 47 1
100 -2 53 -3 98 -3 100 -1 6 5 105 7 105 1 0 -5 170 -4 175 2 2 1 47 1 100 -2
53 -3 98 -3 100 -1 7 7 105 6 105 -1 0 -4 12 -3 28 1 15 5 37 5 49 0 12 -4 25
-4 28 0 3 5 21 5 40 1 19 -4 37 -5 39 -1 2 3 37 4 76 1 39 -3 73 -3 75 0 2 3
47 3 100 0 53 -3 98 -3 100 -1 6 6 105 7 105 1 0 -3 12 -5 28 -4 15 1 27 3 27
4 0 1 24 2 53 3 28 1 52 0 52 -3 0 -4 173 -4 175 0 0 0 63 2 140 4 77 3 156 8
175 11 19 3 44 8 55 10 81 14 224 55 305 88 14 6 27 11 30 12 14 5 140 69 172
88 109 64 263 188 337 271 14 16 41 45 59 64 17 19 32 38 32 41 0 3 10 17 23
31 108 119 249 444 282 650 2 14 7 41 11 60 4 19 9 239 11 488 l5 452 -239 0
c-131 0 -1102 1 -2158 3 -1056 1 -1939 1 -1962 -1z"/>
</g>
</svg>
