<svg width="64" height="64" viewBox="0 0 64 64" fill="none" xmlns="http://www.w3.org/2000/svg">
<path d="M13.2078 44.14C11.5452 44.14 10.0833 43.8104 8.82206 43.1511C7.5608 42.4918 6.5862 41.5745 5.89824 40.3992C5.21028 39.1953 4.8663 37.8194 4.8663 36.2715V35.0245C4.8663 34.8812 4.90929 34.7666 4.99529 34.6806C5.10995 34.5659 5.23894 34.5086 5.38227 34.5086H10.327C10.4703 34.5086 10.585 34.5659 10.671 34.6806C10.7856 34.7666 10.8429 34.8812 10.8429 35.0245V35.9705C10.8429 36.8591 11.0723 37.5757 11.5309 38.1204C11.9895 38.665 12.5628 38.9373 13.2508 38.9373C13.9388 38.9373 14.5121 38.6793 14.9707 38.1634C15.4293 37.6474 15.6587 36.9738 15.6587 36.1425C15.6587 35.2825 15.372 34.5516 14.7987 33.9496C14.2254 33.319 13.1075 32.4017 11.4449 31.1978C10.0117 30.1658 8.85073 29.2485 7.96211 28.4459C7.0735 27.6433 6.31388 26.6544 5.68325 25.4791C5.05262 24.3038 4.7373 22.9423 4.7373 21.3943C4.7373 18.9578 5.49693 17.0086 7.01617 15.5467C8.53541 14.0848 10.542 13.3538 13.0358 13.3538C15.5583 13.3538 17.5792 14.1134 19.0985 15.6327C20.6464 17.1519 21.4203 19.1441 21.4203 21.6093V22.6413C21.4203 22.7846 21.363 22.9136 21.2483 23.0282C21.1623 23.1142 21.0477 23.1572 20.9043 23.1572H15.9596C15.8163 23.1572 15.6873 23.1142 15.5727 23.0282C15.4867 22.9136 15.4437 22.7846 15.4437 22.6413V21.4803C15.4437 20.5917 15.2144 19.8894 14.7557 19.3735C14.3257 18.8288 13.7524 18.5565 13.0358 18.5565C12.3479 18.5565 11.7889 18.8145 11.3589 19.3305C10.9289 19.8178 10.714 20.5057 10.714 21.3943C10.714 22.2543 10.9863 23.0139 11.5309 23.6732C12.0755 24.3325 13.1505 25.2498 14.7557 26.425C16.5329 27.7436 17.8659 28.8186 18.7545 29.6499C19.6718 30.4525 20.374 31.3554 20.8614 32.3587C21.3773 33.3333 21.6353 34.5086 21.6353 35.8845C21.6353 38.407 20.8614 40.4136 19.3134 41.9041C17.7655 43.3947 15.7303 44.14 13.2078 44.14Z" fill="#3E36A5"/>
<path d="M41.2566 13.6978C41.3999 13.6978 41.5146 13.7551 41.6006 13.8698C41.7152 13.9558 41.7726 14.0704 41.7726 14.2138V18.3845C41.7726 18.5278 41.7152 18.6568 41.6006 18.7715C41.5146 18.8575 41.3999 18.9005 41.2566 18.9005H35.8819C35.7386 18.9005 35.6669 18.9722 35.6669 19.1155V43.2801C35.6669 43.4234 35.6096 43.5524 35.4949 43.667C35.4089 43.753 35.2943 43.796 35.151 43.796H30.1202C29.9769 43.796 29.8479 43.753 29.7333 43.667C29.6473 43.5524 29.6043 43.4234 29.6043 43.2801V19.1155C29.6043 18.9722 29.5326 18.9005 29.3893 18.9005H24.2296C24.0863 18.9005 23.9573 18.8575 23.8426 18.7715C23.7566 18.6568 23.7136 18.5278 23.7136 18.3845V14.2138C23.7136 14.0704 23.7566 13.9558 23.8426 13.8698C23.9573 13.7551 24.0863 13.6978 24.2296 13.6978H41.2566Z" fill="#3E36A5"/>
<path d="M60.4237 18.3845C60.4237 18.5278 60.3664 18.6568 60.2517 18.7715C60.1657 18.8575 60.0511 18.9005 59.9077 18.9005H50.9643C50.821 18.9005 50.7493 18.9722 50.7493 19.1155V25.9091C50.7493 26.0524 50.821 26.1241 50.9643 26.1241H56.081C56.2243 26.1241 56.339 26.1814 56.4249 26.2961C56.5396 26.382 56.5969 26.4967 56.5969 26.64V30.8108C56.5969 30.9541 56.5396 31.0831 56.4249 31.1978C56.339 31.2838 56.2243 31.3268 56.081 31.3268H50.9643C50.821 31.3268 50.7493 31.3984 50.7493 31.5417V43.2801C50.7493 43.4234 50.692 43.5524 50.5773 43.667C50.4913 43.753 50.3766 43.796 50.2333 43.796H45.2026C45.0593 43.796 44.9303 43.753 44.8156 43.667C44.7296 43.5524 44.6866 43.4234 44.6866 43.2801V14.2138C44.6866 14.0704 44.7296 13.9558 44.8156 13.8698C44.9303 13.7551 45.0593 13.6978 45.2026 13.6978H59.9077C60.0511 13.6978 60.1657 13.7551 60.2517 13.8698C60.3664 13.9558 60.4237 14.0704 60.4237 14.2138V18.3845Z" fill="#3E36A5"/>
<path fill-rule="evenodd" clip-rule="evenodd" d="M21.884 53.6471L3.57629 53.647V48.2724L21.884 48.2724V53.6471Z" fill="black"/>
</svg>
